<?xml version="1.0" encoding="UTF-8" standalone="no"?>
<!-- Created with Inkscape (http://www.inkscape.org/) -->

<svg
   width="114.03235mm"
   height="114.27334mm"
   viewBox="0 0 114.03235 114.27334"
   version="1.1"
   id="svg7104"
   inkscape:version="1.1.1 (c3084ef, 2021-09-22)"
   sodipodi:docname="iot_car.svg"
   xmlns:inkscape="http://www.inkscape.org/namespaces/inkscape"
   xmlns:sodipodi="http://sodipodi.sourceforge.net/DTD/sodipodi-0.dtd"
   xmlns:xlink="http://www.w3.org/1999/xlink"
   xmlns="http://www.w3.org/2000/svg"
   xmlns:svg="http://www.w3.org/2000/svg">
  <sodipodi:namedview
     id="namedview7106"
     pagecolor="#ffffff"
     bordercolor="#666666"
     borderopacity="1.0"
     inkscape:pageshadow="2"
     inkscape:pageopacity="0.0"
     inkscape:pagecheckerboard="0"
     inkscape:document-units="mm"
     showgrid="false"
     fit-margin-top="0"
     fit-margin-left="0"
     fit-margin-right="0"
     fit-margin-bottom="0"
     inkscape:zoom="0.64052329"
     inkscape:cx="186.56621"
     inkscape:cy="320.05081"
     inkscape:window-width="1440"
     inkscape:window-height="874"
     inkscape:window-x="577"
     inkscape:window-y="1466"
     inkscape:window-maximized="0"
     inkscape:current-layer="layer1" />
  <defs
     id="defs7101" />
  <g
     inkscape:label="Layer 1"
     inkscape:groupmode="layer"
     id="layer1"
     transform="translate(-55.752948,-63.89389)">
    <g
       id="g4100"
       clip-path="none"
       transform="matrix(0.35277777,0,0,0.35277777,-380.3288,-1532.5277)">
      <g
         inkscape:label="Clip"
         id="g4098">
        <path
           d="m 1397.758,4525.306 c -29.444,-0.547 -60.979,12.666 -81.238,34.039 -4.411,4.969 -3.298,15.158 2.081,19.058 4.615,4.78 14.86,4.454 19.161,-0.61 15.207,-15.41 38.35,-24.828 59.996,-24.415 21.646,-0.413 44.789,9.005 59.995,24.415 4.302,5.064 14.547,5.39 19.162,0.61 5.379,-3.9 6.491,-14.089 2.08,-19.058 -20.258,-21.373 -51.794,-34.586 -81.237,-34.039 z"
           stroke="#c80000"
           stroke-width="0.24"
           fill="none"
           id="path828"
           style="fill:#000000;fill-opacity:1" />
        <path
           d="m 1397.758,4578.644 c -15.1,-0.322 -31.249,6.158 -41.939,16.828 -2.42,2.232 -4.217,6.063 -4.271,9.918 -0.054,3.856 1.636,7.735 3.993,10.034 2.231,2.42 6.062,4.217 9.918,4.271 3.855,0.054 7.735,-1.635 10.033,-3.993 5.665,-5.659 14.262,-9.071 22.266,-8.838 8.004,-0.233 16.601,3.179 22.266,8.838 2.298,2.358 6.178,4.047 10.033,3.993 3.855,-0.054 7.686,-1.851 9.918,-4.271 2.357,-2.299 4.046,-6.178 3.993,-10.034 -0.054,-3.855 -1.851,-7.686 -4.272,-9.918 -10.689,-10.67 -26.838,-17.15 -41.938,-16.828 z"
           stroke="#c80000"
           stroke-width="0.24"
           fill="none"
           id="path830"
           style="fill:#000000;fill-opacity:1" />
        <path
           id="path926"
           style="fill:#000000;fill-opacity:1"
           d="m 1667.9453,2796.5195 -40.2305,126.8496 h -1.3437 c -6.2933,-0.168 -13.8628,2.6877 -19.0762,7.9024 -5.2133,5.212 -8.0709,12.7848 -7.9043,19.0781 v 140.9375 h 10.1367 v 54.7168 c -0.6733,6.6373 6.8529,14.1636 13.4903,13.4902 h 44.2402 c 6.6373,0.6734 14.1636,-6.8529 13.4902,-13.4902 v -54.7168 h 134.1309 134.1289 v 54.7168 c -0.672,6.6373 6.8516,14.1636 13.4902,13.4902 h 44.2422 c 6.6374,0.6734 14.1616,-6.8529 13.4883,-13.4902 v -54.7168 h 10.1367 v -140.9375 c 0.1667,-6.2933 -2.689,-13.8661 -7.9023,-19.0781 -5.2133,-5.2147 -12.7848,-8.0704 -19.0781,-7.9024 h -1.3457 l -40.2286,-126.8496 -33.248,34.2598 18.4805,92.5898 h -135.084 -129.2461 l 18.4805,-92.5898 z m 11.2285,176.0157 c 1.0973,-0.013 2.1727,0.033 3.2168,0.1406 8.3867,0.416 18.167,4.9846 24.5723,12.4472 6.4053,7.464 9.4355,17.8244 8.5742,26.1778 -0.416,8.3866 -4.9846,18.1669 -12.4473,24.5722 -7.464,6.404 -17.8244,9.4336 -26.1777,8.5723 -8.3867,-0.4173 -18.1669,-4.9833 -24.5723,-12.4473 -6.404,-7.464 -9.4336,-17.8224 -8.5722,-26.1757 0.4173,-8.388 4.9832,-18.167 12.4472,-24.5723 6.5299,-5.6047 15.2779,-8.6245 22.959,-8.7148 z m 271.4082,0 c 7.6809,0.09 16.428,3.1101 22.959,8.7148 7.464,6.4053 12.0313,16.1843 12.4473,24.5723 0.8613,8.3533 -2.1689,18.7117 -8.5742,26.1757 -6.404,7.464 -16.1843,12.03 -24.5723,12.4473 -8.352,0.8613 -18.7118,-2.1683 -26.1758,-8.5723 -7.4627,-6.4053 -12.0313,-16.1856 -12.4472,-24.5722 -0.8614,-8.3534 2.1688,-18.7138 8.5742,-26.1778 6.404,-7.4626 16.1842,-12.0312 24.5722,-12.4472 1.0442,-0.1077 2.1196,-0.1536 3.2168,-0.1406 z m -171.6308,15.4804 h 35.9277 35.9258 c 4.888,-0.1293 10.7671,2.0894 14.8164,6.1387 4.0493,4.0493 6.268,9.9304 6.1387,14.8184 0.1293,4.888 -2.0894,10.767 -6.1387,14.8164 -4.0493,4.0493 -9.9284,6.268 -14.8164,6.1386 h -35.9258 -35.9277 c -4.8894,0.1294 -10.7691,-2.0893 -14.8184,-6.1386 -4.0493,-4.0494 -6.266,-9.9284 -6.1367,-14.8164 -0.1293,-4.888 2.0874,-10.7691 6.1367,-14.8184 4.0493,-4.0493 9.929,-6.268 14.8184,-6.1387 z"
           transform="matrix(0.75,0,0,0.75,36.599489,2479.5619)" />
      </g>
    </g>
    <use
       x="0"
       y="0"
       xlink:href="#g4098"
       id="use4104"
       width="100%"
       height="100%"
       transform="matrix(0.35277777,0,0,0.35277777,-380.3288,-1532.5277)" />
  </g>
</svg>
