<?xml version="1.0" encoding="UTF-8" standalone="no"?>
<!-- Created with Inkscape (http://www.inkscape.org/) -->

<svg
   width="117.43278mm"
   height="119.46729mm"
   viewBox="0 0 117.43278 119.46729"
   version="1.1"
   id="svg6684"
   inkscape:version="1.1.1 (c3084ef, 2021-09-22)"
   sodipodi:docname="iot_lamp.svg"
   xmlns:inkscape="http://www.inkscape.org/namespaces/inkscape"
   xmlns:sodipodi="http://sodipodi.sourceforge.net/DTD/sodipodi-0.dtd"
   xmlns:xlink="http://www.w3.org/1999/xlink"
   xmlns="http://www.w3.org/2000/svg"
   xmlns:svg="http://www.w3.org/2000/svg">
  <sodipodi:namedview
     id="namedview6686"
     pagecolor="#ffffff"
     bordercolor="#666666"
     borderopacity="1.0"
     inkscape:pageshadow="2"
     inkscape:pageopacity="0.0"
     inkscape:pagecheckerboard="0"
     inkscape:document-units="mm"
     showgrid="false"
     fit-margin-top="0"
     fit-margin-left="0"
     fit-margin-right="0"
     fit-margin-bottom="0"
     inkscape:zoom="0.64052329"
     inkscape:cx="291.16818"
     inkscape:cy="312.2447"
     inkscape:window-width="1440"
     inkscape:window-height="874"
     inkscape:window-x="577"
     inkscape:window-y="1466"
     inkscape:window-maximized="0"
     inkscape:current-layer="layer1" />
  <defs
     id="defs6681" />
  <g
     inkscape:label="Layer 1"
     inkscape:groupmode="layer"
     id="layer1"
     transform="translate(-28.029089,-66.253891)">
    <g
       id="g4074"
       clip-path="none"
       transform="matrix(0.35277777,0,0,0.35277777,-188.15842,-1309.5013)">
      <g
         inkscape:label="Clip"
         id="g4072">
        <path
           d="m 860.4153,3949.212 c -2.8778,-1.599 -7.0789,-2.105 -10.7569,-0.947 -3.6779,1.157 -6.8327,3.977 -8.2765,6.936 -1.599,2.877 -2.105,7.079 -0.9478,10.757 1.1571,3.677 3.9774,6.832 6.9361,8.276 7.3523,3.697 13.4155,11.115 15.5762,19.056 2.3923,7.874 1.2012,17.38 -3.0597,24.421 -1.7381,2.796 -2.4492,6.967 -1.4736,10.697 0.9756,3.73 3.6379,7.019 6.5223,8.607 2.796,1.738 6.9674,2.449 10.6976,1.473 3.7302,-0.975 7.0193,-3.638 8.6063,-6.522 8.1104,-13.401 10.3774,-31.495 5.8238,-46.483 -4.1126,-15.114 -15.6534,-29.233 -29.6478,-36.271 z"
           stroke="#c80000"
           stroke-width="0.24"
           fill="none"
           id="path868"
           style="fill:#000000;fill-opacity:1" />
        <path
           d="m 748.1966,4167.633 c 0.5047,-4.978 -5.139,-10.622 -10.1174,-10.117 -4.9785,-0.505 -10.6222,5.139 -10.1175,10.117 v 50.558 h -20.2349 c -4.7199,-0.125 -10.3981,2.017 -14.3082,5.927 -3.9101,3.91 -6.0521,9.589 -5.9267,14.308 h 101.1745 c 0.1255,-4.719 -2.0166,-10.398 -5.9267,-14.308 -3.9101,-3.91 -9.5883,-6.052 -14.3082,-5.927 h -20.2349 z"
           stroke="#c80000"
           stroke-width="0.24"
           fill="none"
           id="path870"
           style="fill:#000000;fill-opacity:1" />
        <path
           d="m 806.4893,3938.885 55.8735,175.603 c -26.5287,26.997 -35.5765,26.7 -41.5048,22.941 -6.4383,-4.082 -9.1975,-12.247 -13.9496,-16.329 -4.7521,-4.083 -11.497,-4.083 -16.8624,0 -5.3654,4.082 -9.3512,12.247 -14.7165,16.329 -5.3654,4.082 -12.1104,4.082 -16.8625,0 -4.752,-4.082 -7.5112,-12.247 -12.2633,-16.329 -4.752,-4.083 -11.497,-4.083 -16.8624,0 -5.3653,4.082 -9.3511,12.247 -14.7165,16.329 -5.3653,4.082 -12.1103,4.082 -16.8624,0 -4.7521,-4.082 -7.5112,-12.247 -12.2633,-16.329 -4.7521,-4.083 -11.4971,-4.083 -16.8624,0 -5.3654,4.082 -9.3512,12.247 -16.4028,16.329 -6.509,3.768 -15.6301,4.058 -39.4189,-23.14 l 47.6162,-174.592 c 1.7174,-8.194 11.1648,-15.41 19.5219,-14.911 h 107.2538 c 8.1063,-0.441 17.2441,6.241 19.2824,14.099 z"
           stroke="#c80000"
           stroke-width="0.24"
           fill="none"
           id="path872"
           style="fill:#000000;fill-opacity:1" />
        <path
           d="m 798.6942,4164.153 v 21.757 c -0.0349,2.611 1.1187,5.396 2.9896,7.217 1.8216,1.872 4.6065,3.025 7.2174,2.99 2.6111,0.035 5.396,-1.118 7.2176,-2.99 1.8709,-1.821 3.0244,-4.606 2.9895,-7.217 v -21.757 c 0.0349,-2.611 -1.1186,-5.396 -2.9895,-7.217 -1.8216,-1.871 -4.6065,-3.025 -7.2176,-2.99 -2.6109,-0.035 -5.3958,1.119 -7.2174,2.99 -1.8709,1.821 -3.0245,4.606 -2.9896,7.217 z"
           stroke="#c80000"
           stroke-width="0.24"
           fill="none"
           id="path874"
           style="fill:#000000;fill-opacity:1" />
        <path
           d="m 871.5443,3926.524 c 8.8658,4.526 17.6415,11.059 25.0245,19.484 7.383,8.426 13.3733,18.743 16.9638,29.837 3.5905,11.094 4.7811,22.965 3.7346,34.118 -1.0467,11.154 -4.3305,21.59 -8.8635,30.452 -1.5647,2.877 -2.0302,7.061 -0.846,10.709 1.1842,3.648 4.0182,6.761 6.9745,8.171 2.8772,1.565 7.0611,2.03 10.7094,0.846 3.6484,-1.184 6.7613,-4.018 8.1709,-6.974 13.6043,-25.794 16.1166,-59.465 6.4906,-86.993 -8.862,-27.782 -31.1168,-53.175 -57.4975,-65.603 -6.101,-2.632 -15.4282,1.618 -17.4458,7.948 -3.0927,5.881 0.4277,15.507 6.5845,18.005 z"
           stroke="#c80000"
           stroke-width="0.24"
           fill="none"
           id="path876"
           style="fill:#000000;fill-opacity:1" />
      </g>
    </g>
    <use
       x="0"
       y="0"
       xlink:href="#g4072"
       id="use4078"
       width="100%"
       height="100%"
       transform="matrix(0.35277777,0,0,0.35277777,-188.15842,-1309.5013)" />
  </g>
</svg>
