<?xml version="1.0" encoding="UTF-8" standalone="no"?>
<!-- Created with Inkscape (http://www.inkscape.org/) -->

<svg
   width="78.575607mm"
   height="127.72258mm"
   viewBox="0 0 78.575607 127.72258"
   version="1.1"
   id="svg7405"
   inkscape:version="1.1.1 (c3084ef, 2021-09-22)"
   sodipodi:docname="iot_power.svg"
   xmlns:inkscape="http://www.inkscape.org/namespaces/inkscape"
   xmlns:sodipodi="http://sodipodi.sourceforge.net/DTD/sodipodi-0.dtd"
   xmlns="http://www.w3.org/2000/svg"
   xmlns:svg="http://www.w3.org/2000/svg">
  <sodipodi:namedview
     id="namedview7407"
     pagecolor="#ffffff"
     bordercolor="#666666"
     borderopacity="1.0"
     inkscape:pageshadow="2"
     inkscape:pageopacity="0.0"
     inkscape:pagecheckerboard="0"
     inkscape:document-units="mm"
     showgrid="false"
     fit-margin-top="0"
     fit-margin-left="0"
     fit-margin-right="0"
     fit-margin-bottom="0"
     inkscape:zoom="0.64052329"
     inkscape:cx="-61.668328"
     inkscape:cy="516.76497"
     inkscape:window-width="1440"
     inkscape:window-height="874"
     inkscape:window-x="577"
     inkscape:window-y="1466"
     inkscape:window-maximized="0"
     inkscape:current-layer="layer1" />
  <defs
     id="defs7402" />
  <g
     inkscape:label="Layer 1"
     inkscape:groupmode="layer"
     id="layer1"
     transform="translate(-121.39786,-12.144274)">
    <g
       inkscape:label="Clip"
       id="g4045"
       transform="matrix(0.35277777,0,0,0.35277777,-548.80197,-711.05933)">
      <path
         id="path826"
         style="fill:#000000;fill-opacity:1"
         d="m 2775.5645,2889.6777 c -6.2934,-0.1666 -13.8648,2.689 -19.0782,7.9024 -5.2133,5.2133 -8.069,12.7848 -7.9023,19.0781 v 112.7051 h -8.1582 c -6.6374,-0.6734 -14.1636,6.8529 -13.4903,13.4902 v 67.3457 c -0.6733,6.6374 6.8529,14.1636 13.4903,13.4903 h 42.1035 v 67.4746 c -0.1187,4.4413 1.8975,9.7842 5.5762,13.4629 3.6786,3.6786 9.0209,5.6935 13.4609,5.5761 4.4413,0.1174 9.7842,-1.8975 13.4629,-5.5761 3.6787,-3.6787 5.6935,-9.0216 5.5762,-13.4629 v -67.4746 h 99.3476 v 67.4746 c -0.1186,4.4413 1.8975,9.7842 5.5762,13.4629 3.6787,3.6786 9.0209,5.6935 13.4609,5.5761 4.4414,0.1174 9.7829,-1.8975 13.4629,-5.5761 3.6787,-3.6787 5.6935,-9.0216 5.5762,-13.4629 v -67.4746 h 52.3105 c 6.6387,0.6733 14.1623,-6.8529 13.4903,-13.4903 v -67.3457 c 0.672,-6.6373 -6.8516,-14.1636 -13.4903,-13.4902 h -8.6738 v -112.7051 c 0.1667,-6.2933 -2.689,-13.8648 -7.9023,-19.0781 -5.2134,-5.2134 -12.7829,-8.069 -19.0762,-7.9024 z m 126.3535,43.0664 c 1.529,-0.109 3.0928,0.2451 4.2148,1.0938 2.4333,1.412 3.7199,5.2138 2.6426,7.8125 L 2893,2987.4395 c -0.7213,1.9413 -0.3579,4.4559 0.8848,6.1132 1.1626,1.7147 3.4202,2.8775 5.4922,2.8282 h 28.3984 c 2.588,-0.1227 5.4901,1.8759 6.3008,4.3359 1.0386,2.3733 0.2085,5.7989 -1.8008,7.4336 l -78.6973,70.4883 c -1.9933,2.0253 -6.0633,2.2948 -8.3047,0.5468 -2.4426,-1.452 -3.6743,-5.3408 -2.5117,-7.9355 l 17.4375,-46.584 c 0.784,-1.9467 0.4652,-4.5123 -0.7734,-6.207 -1.1534,-1.7533 -3.4443,-2.955 -5.543,-2.9043 h -29.1367 c -2.5893,0.124 -5.4928,-1.8772 -6.3008,-4.3399 -1.0387,-2.3746 -0.2034,-5.8002 1.8086,-7.4336 l 77.6504,-69.3574 c 0.99,-0.9993 2.4847,-1.5707 4.0137,-1.6797 z"
         transform="matrix(0.75,0,0,0.75,-145.39094,4.4183007)" />
      <path
         d="m 1950.686,2103.589 c 6.968,-7.109 15.824,-13.532 26.071,-18.061 10.246,-4.528 21.882,-7.163 33.542,-7.275 11.66,-0.112 23.344,2.299 33.675,6.629 10.332,4.331 19.31,10.583 26.413,17.556 2.279,2.354 6.132,4.048 9.968,4.007 3.835,-0.04 7.653,-1.814 9.881,-4.215 2.353,-2.278 4.047,-6.131 4.007,-9.967 -0.04,-3.836 -1.815,-7.653 -4.215,-9.881 -20.551,-20.69 -51.934,-33.146 -81.08,-32.184 -29.161,0.157 -60.043,13.809 -79.785,35.272 -4.334,5.036 -3.065,15.207 2.373,19.024 4.689,4.708 14.927,4.224 19.15,-0.905 z"
         stroke="#c80000"
         stroke-width="0.24"
         fill="none"
         id="path850"
         style="fill:#000000;fill-opacity:1" />
      <path
         d="m 1969.013,2120.988 c -2.386,2.269 -4.123,6.127 -4.118,9.982 0.01,3.856 1.754,7.709 4.147,9.971 2.268,2.386 6.126,4.124 9.982,4.118 3.856,-0.01 7.709,-1.754 9.971,-4.146 5.725,-5.912 14.615,-9.482 22.839,-9.172 8.229,0.069 16.945,4.046 22.391,10.216 2.149,2.494 5.918,4.419 9.769,4.602 3.851,0.183 7.786,-1.375 10.162,-3.653 2.494,-2.149 4.419,-5.918 4.602,-9.769 0.184,-3.851 -1.374,-7.785 -3.653,-10.162 -10.366,-11.743 -26.956,-19.313 -42.62,-19.445 -15.653,-0.591 -32.575,6.205 -43.472,17.458 z"
         stroke="#c80000"
         stroke-width="0.24"
         fill="none"
         id="path852"
         style="fill:#000000;fill-opacity:1" />
    </g>
  </g>
</svg>
