<?xml version="1.0" encoding="UTF-8" standalone="no"?>
<!-- Created with Inkscape (http://www.inkscape.org/) -->

<svg
   width="106.48651mm"
   height="122.52066mm"
   viewBox="0 0 106.48651 122.52066"
   version="1.1"
   id="svg6339"
   inkscape:version="1.1.1 (c3084ef, 2021-09-22)"
   sodipodi:docname="iot_house.svg"
   xmlns:inkscape="http://www.inkscape.org/namespaces/inkscape"
   xmlns:sodipodi="http://sodipodi.sourceforge.net/DTD/sodipodi-0.dtd"
   xmlns="http://www.w3.org/2000/svg"
   xmlns:svg="http://www.w3.org/2000/svg">
  <sodipodi:namedview
     id="namedview6341"
     pagecolor="#ffffff"
     bordercolor="#666666"
     borderopacity="1.0"
     inkscape:pageshadow="2"
     inkscape:pageopacity="0.0"
     inkscape:pagecheckerboard="0"
     inkscape:document-units="mm"
     showgrid="false"
     fit-margin-top="0"
     fit-margin-left="0"
     fit-margin-right="0"
     fit-margin-bottom="0"
     inkscape:zoom="0.64052329"
     inkscape:cx="263.06616"
     inkscape:cy="263.84677"
     inkscape:window-width="1440"
     inkscape:window-height="874"
     inkscape:window-x="577"
     inkscape:window-y="1466"
     inkscape:window-maximized="0"
     inkscape:current-layer="layer1" />
  <defs
     id="defs6336" />
  <g
     inkscape:label="Layer 1"
     inkscape:groupmode="layer"
     id="layer1"
     transform="translate(-35.567593,-12.679868)">
    <g
       id="g4035"
       clip-path="none"
       transform="matrix(0.35277777,0,0,0.35277777,29.512325,-712.6118)">
      <g
         inkscape:label="Clip"
         id="g4033">
        <path
           d="m 59.61907,2126.787 c -2.38574,2.268 -4.12372,6.127 -4.11823,9.982 0.0055,3.856 1.75446,7.709 4.14667,9.971 2.26865,2.386 6.12681,4.124 9.98249,4.118 3.85568,-0.01 7.70888,-1.754 9.97072,-4.147 5.72491,-5.911 14.61526,-9.482 22.83898,-9.171 8.2292,0.069 16.9454,4.046 22.3914,10.215 2.1491,2.495 5.9175,4.419 9.7688,4.603 3.8513,0.183 7.7855,-1.375 10.1618,-3.653 2.4941,-2.15 4.419,-5.918 4.6024,-9.769 0.1834,-3.852 -1.3748,-7.786 -3.6533,-10.162 -10.366,-11.744 -26.9563,-19.313 -42.6199,-19.445 -15.65306,-0.591 -32.57501,6.205 -43.47183,17.458 z"
           stroke="#c80000"
           stroke-width="0.24"
           fill="none"
           id="path910"
           style="fill:#000000;fill-opacity:1" />
        <path
           d="m 41.29216,2109.388 c 6.96777,-7.109 15.82418,-13.532 26.07032,-18.061 10.24614,-4.529 21.88201,-7.163 33.54212,-7.275 11.6601,-0.112 23.3445,2.298 33.6758,6.629 10.3313,4.331 19.3095,10.583 26.4126,17.556 2.2783,2.353 6.1321,4.047 9.9676,4.007 3.8355,-0.04 7.6529,-1.815 9.8814,-4.215 2.3529,-2.278 4.0471,-6.132 4.0069,-9.967 -0.0402,-3.836 -1.8148,-7.653 -4.2149,-9.882 -20.5516,-20.689 -51.9342,-33.146 -81.08016,-32.183 -29.16141,0.157 -60.04273,13.809 -79.78515,35.272 -4.3341,5.036 -3.0651,15.207 2.37357,19.023 4.6882,4.709 14.92644,4.225 19.1499,-0.904 z"
           stroke="#c80000"
           stroke-width="0.24"
           fill="none"
           id="path912"
           style="fill:#000000;fill-opacity:1" />
        <path
           d="m 133.8268,2403.216 c 4.9784,0.505 10.6221,-5.139 10.1174,-10.117 v -84.351 c -0.5047,-4.979 5.139,-10.623 10.1175,-10.118 h 66.8155 c 4.9785,-0.505 10.6222,5.139 10.1175,10.118 v 84.351 c -0.5047,4.978 5.139,10.622 10.1174,10.117 h 67.755 c 4.9785,0.505 10.6222,-5.139 10.1174,-10.117 v -120.112 c 0.0473,-2.791 -1.3121,-5.795 -3.4406,-7.602 L 196.183,2160.545 c -3.2068,-3.303 -10.1469,-3.303 -13.3536,0 l -54.5417,47.907 v -22.139 c 0.5047,-4.978 -5.139,-10.622 -10.1175,-10.117 H 84.23341 c -4.97847,-0.505 -10.62217,5.139 -10.11745,10.117 v 69.72 l -15.03409,13.206 c -2.12849,1.806 -3.48787,4.81 -3.44065,7.601 v 116.259 c -0.50471,4.978 5.13898,10.622 10.11745,10.117 z"
           stroke="#c80000"
           stroke-width="0.24"
           fill="none"
           id="path914"
           style="fill:#000000;fill-opacity:1" />
      </g>
    </g>
  </g>
</svg>
