<?xml version="1.0" encoding="UTF-8" standalone="no"?>
<!-- Created with Inkscape (http://www.inkscape.org/) -->

<svg
   width="106.41598mm"
   height="117.55955mm"
   viewBox="0 0 106.41598 117.55955"
   version="1.1"
   id="svg7828"
   inkscape:version="1.1.1 (c3084ef, 2021-09-22)"
   sodipodi:docname="iot_hairdryer.svg"
   xmlns:inkscape="http://www.inkscape.org/namespaces/inkscape"
   xmlns:sodipodi="http://sodipodi.sourceforge.net/DTD/sodipodi-0.dtd"
   xmlns:xlink="http://www.w3.org/1999/xlink"
   xmlns="http://www.w3.org/2000/svg"
   xmlns:svg="http://www.w3.org/2000/svg">
  <sodipodi:namedview
     id="namedview7830"
     pagecolor="#ffffff"
     bordercolor="#666666"
     borderopacity="1.0"
     inkscape:pageshadow="2"
     inkscape:pageopacity="0.0"
     inkscape:pagecheckerboard="0"
     inkscape:document-units="mm"
     showgrid="false"
     fit-margin-top="0"
     fit-margin-left="0"
     fit-margin-right="0"
     fit-margin-bottom="0"
     inkscape:zoom="0.64052329"
     inkscape:cx="141.29073"
     inkscape:cy="257.60187"
     inkscape:window-width="1440"
     inkscape:window-height="874"
     inkscape:window-x="577"
     inkscape:window-y="1466"
     inkscape:window-maximized="0"
     inkscape:current-layer="layer1" />
  <defs
     id="defs7825" />
  <g
     inkscape:label="Layer 1"
     inkscape:groupmode="layer"
     id="layer1"
     transform="translate(-67.822606,-80.426091)">
    <g
       id="g4976"
       clip-path="none"
       style="fill-rule:nonzero"
       transform="matrix(0.35277777,0,0,0.35277777,-805.42807,-1080.6801)">
      <g
         inkscape:label="Clip"
         id="g4974"
         style="fill-rule:nonzero">
        <path
           id="path824"
           style="fill:#000000;fill-opacity:1;fill-rule:nonzero"
           d="m 993.1582,3551.9746 c -20.57161,-0.023 -33.40532,5.7421 -44.18945,12.3457 -24.58533,15.0533 -38.51876,34.4723 -44.99609,56.4336 -6.47734,21.9613 -5.49896,46.4653 1.23437,67.7227 6.73333,21.2573 19.22166,39.2682 25.73633,62.3242 5.55733,19.668 6.76595,43.0062 7.00195,118.7676 h 69.45699 v -99.4629 c -0.8346,-9.4894 9.1453,-20.2745 18.6719,-20.1758 24.0494,-1.8653 46.1426,-11.7882 65.9492,-27.7695 v -144.4786 c -46.299,-19.1028 -76.9664,-25.6831 -98.8652,-25.707 z m 4.60938,114.0313 h 43.93942 c 4.72,-0.1254 10.3993,2.0151 14.3086,5.9257 3.9107,3.9107 6.0531,9.5886 5.9278,14.3086 v 4.1211 c 0.1253,4.72 -2.0171,10.3993 -5.9278,14.3086 -3.9093,3.9107 -9.5886,6.0511 -14.3086,5.9258 h -43.93942 c -4.72,0.1253 -10.39598,-2.0151 -14.30664,-5.9258 -3.90934,-3.9093 -6.05307,-9.5886 -5.92774,-14.3086 v -4.1211 c -0.12533,-4.72 2.0184,-10.3979 5.92774,-14.3086 3.91066,-3.9106 9.58664,-6.0511 14.30664,-5.9257 z"
           transform="matrix(0.75,0,0,0.75,1896.5519,722.38807)" />
        <path
           d="m 2528.744,3404.753 c -0.051,3.292 1.485,7.234 4.241,9.931 2.756,2.696 6.732,4.147 10.022,4.023 3.291,0.052 7.234,-1.485 9.931,-4.241 2.696,-2.756 4.146,-6.731 4.023,-10.021 -0.211,-8.227 3.468,-17.073 9.449,-22.726 5.813,-5.825 14.756,-9.261 22.974,-8.828 3.285,0.213 7.298,-1.129 10.126,-3.749 2.829,-2.621 4.472,-6.52 4.51,-9.812 0.213,-3.286 -1.129,-7.299 -3.749,-10.127 -2.621,-2.828 -6.521,-4.471 -9.813,-4.509 -15.642,-0.826 -32.664,5.715 -43.729,16.803 -11.384,10.759 -18.385,27.597 -17.985,43.256 z"
           stroke="#c80000"
           stroke-width="0.24"
           fill="none"
           id="path902"
           style="fill:#000000;fill-opacity:1;fill-rule:nonzero" />
        <path
           d="m 2503.49,3405.649 c -0.194,-9.952 1.424,-20.773 5.367,-31.258 3.944,-10.485 10.213,-20.636 18.299,-29.037 8.086,-8.401 17.99,-15.053 28.317,-19.395 10.327,-4.341 21.078,-6.371 31.03,-6.557 3.275,0.022 7.183,-1.542 9.841,-4.308 2.657,-2.766 4.064,-6.734 3.912,-10.005 0.022,-3.275 -1.543,-7.183 -4.308,-9.841 -2.766,-2.658 -6.734,-4.065 -10.006,-3.912 -29.161,0.179 -60.032,13.855 -79.757,35.333 -20.312,20.925 -32.195,52.529 -30.703,81.653 0.56,6.621 8.708,12.838 15.242,11.629 6.644,-0.049 13.469,-7.695 12.766,-14.302 z"
           stroke="#c80000"
           stroke-width="0.24"
           fill="none"
           id="path904"
           style="fill:#000000;fill-opacity:1;fill-rule:nonzero" />
        <path
           d="m 2777.004,3494.712 v -67.69 c 0.094,-3.54 -1.513,-7.799 -4.445,-10.731 -2.933,-2.933 -7.191,-4.54 -10.731,-4.446 h -6.195 c -3.54,-0.094 -7.799,1.513 -10.731,4.446 -2.933,2.932 -4.539,7.191 -4.445,10.731 v 67.69 c -0.094,3.54 1.512,7.799 4.445,10.732 2.932,2.932 7.191,4.539 10.731,4.445 h 6.195 c 3.54,0.094 7.798,-1.513 10.731,-4.445 2.932,-2.933 4.539,-7.192 4.445,-10.732 z"
           stroke="#c80000"
           stroke-width="0.24"
           fill="none"
           id="path908"
           style="fill:#000000;fill-opacity:1;fill-rule:nonzero" />
      </g>
    </g>
    <use
       x="0"
       y="0"
       xlink:href="#g4974"
       id="use4980"
       width="100%"
       height="100%"
       transform="matrix(0.35277777,0,0,0.35277777,-805.42807,-1080.6801)" />
  </g>
</svg>
