<?xml version="1.0" encoding="UTF-8" standalone="no"?>
<!-- Created with Inkscape (http://www.inkscape.org/) -->

<svg
   width="142.63148mm"
   height="116.1726mm"
   viewBox="0 0 142.63148 116.1726"
   version="1.1"
   id="svg7686"
   inkscape:version="1.1.1 (c3084ef, 2021-09-22)"
   sodipodi:docname="iot_bike.svg"
   xmlns:inkscape="http://www.inkscape.org/namespaces/inkscape"
   xmlns:sodipodi="http://sodipodi.sourceforge.net/DTD/sodipodi-0.dtd"
   xmlns:xlink="http://www.w3.org/1999/xlink"
   xmlns="http://www.w3.org/2000/svg"
   xmlns:svg="http://www.w3.org/2000/svg">
  <sodipodi:namedview
     id="namedview7688"
     pagecolor="#ffffff"
     bordercolor="#666666"
     borderopacity="1.0"
     inkscape:pageshadow="2"
     inkscape:pageopacity="0.0"
     inkscape:pagecheckerboard="0"
     inkscape:document-units="mm"
     showgrid="false"
     fit-margin-top="0"
     fit-margin-left="0"
     fit-margin-right="0"
     fit-margin-bottom="0"
     inkscape:zoom="0.64052329"
     inkscape:cx="100.69891"
     inkscape:cy="415.28545"
     inkscape:window-width="1440"
     inkscape:window-height="874"
     inkscape:window-x="577"
     inkscape:window-y="1466"
     inkscape:window-maximized="0"
     inkscape:current-layer="layer1" />
  <defs
     id="defs7683" />
  <g
     inkscape:label="Layer 1"
     inkscape:groupmode="layer"
     id="layer1"
     transform="translate(-78.630015,-38.985993)">
    <g
       id="g4909"
       clip-path="none"
       transform="matrix(0.35277777,0,0,0.35277777,-992.67061,-1555.755)">
      <g
         inkscape:label="Clip"
         id="g4907">
        <path
           d="m 3120.937,4634.767 c -0.01,3.293 1.588,7.213 4.382,9.87 2.795,2.656 6.79,4.05 10.078,3.88 3.292,0 7.212,-1.589 9.869,-4.383 2.657,-2.794 4.05,-6.79 3.88,-10.077 -0.328,-8.224 3.224,-17.121 9.123,-22.859 5.73,-5.907 14.623,-9.471 22.846,-9.155 3.288,0.166 7.282,-1.233 10.072,-3.894 2.791,-2.66 4.378,-6.583 4.369,-9.875 0.166,-3.288 -1.233,-7.282 -3.894,-10.072 -2.66,-2.791 -6.583,-4.378 -9.875,-4.369 -15.653,-0.603 -32.579,6.181 -43.485,17.426 -11.229,10.92 -17.989,27.857 -17.365,43.508 z"
           stroke="#c80000"
           stroke-width="0.24"
           fill="none"
           id="path884"
           style="fill:#000000;fill-opacity:1" />
        <path
           d="m 3095.698,4636.024 c -0.337,-9.949 1.127,-20.791 4.92,-31.331 3.793,-10.541 9.917,-20.78 17.882,-29.296 7.966,-8.516 17.773,-15.309 28.038,-19.797 10.264,-4.488 20.984,-6.671 30.932,-6.999 3.276,-0.025 7.161,-1.645 9.779,-4.449 2.618,-2.803 3.968,-6.791 3.769,-10.06 -0.025,-3.275 -1.645,-7.16 -4.449,-9.779 -2.803,-2.617 -6.79,-3.967 -10.06,-3.768 -29.155,0.596 -59.828,14.711 -79.245,36.469 -20.011,21.213 -31.441,52.983 -29.533,82.083 0.654,6.611 8.89,12.712 15.406,11.41 6.643,-0.144 13.358,-7.887 12.561,-14.483 z"
           stroke="#c80000"
           stroke-width="0.24"
           fill="none"
           id="path886"
           style="fill:#000000;fill-opacity:1" />
        <path
           id="path896"
           style="fill:#000000;fill-opacity:1"
           d="m 1535.9648,3493.8301 c -0.2619,-0.01 -0.5242,0 -0.7871,0.01 -7.8848,0.3708 -16.1213,9.1444 -15.33,16.9394 -0.844,8.3174 8.5843,17.7431 16.9003,16.9004 h 48.625 l 20.5547,62.2012 h -170.9511 c -9.68,-0.3733 -20.4525,6.3998 -24.3125,15.2852 l -24.7969,51.5527 c -18.956,-7.056 -42.2954,-8.4269 -63.7461,-2.7109 -21.452,5.7146 -41.0166,18.5169 -53.9473,34.0703 -13.2693,15.2653 -22.756,36.6326 -24.9453,58.7246 -2.1893,22.092 2.917,44.9071 12.9317,62.4804 9.6266,17.7882 26.2969,34.1834 46.2089,43.9981 19.912,9.816 43.0684,13.0528 63.0391,9.8555 20.0373,-2.76 41.2443,-12.603 57.4336,-27.795 16.1893,-15.1906 27.3581,-35.7307 31.3848,-55.5507 h 31.7675 c 7.7934,0.152 16.2234,-3.8778 20.9981,-10.0391 l 112.3574,-139.2617 9.9414,30.0859 c -21.9293,9.728 -43.1834,30.9489 -53.5781,56.5742 -10.3947,25.6254 -9.9293,55.6561 -0.9746,77.9121 7.9586,22.6307 27.4245,45.4999 52.1445,57.8946 24.72,12.3946 54.6939,14.3137 77.5899,7.1523 23.1906,-6.1386 47.5342,-23.7301 61.8515,-47.3886 14.316,-23.6587 18.6026,-53.3854 13.2813,-76.7774 -4.28,-23.604 -19.8847,-49.2661 -42.334,-65.4141 -22.448,-16.1466 -51.7405,-22.7813 -75.4805,-19.332 l -45.8711,-138.8027 c -2.8253,-10.356 -14.8985,-19.0817 -25.6172,-18.5137 h -53.5547 c -0.2598,-0.026 -0.5213,-0.042 -0.7832,-0.049 z m -96.6992,129.8476 h 142.1465 l -98.6777,122.3106 h -26.7324 c -2.5694,-27.7667 -18.2828,-56.0575 -40.4961,-72.9121 z m 239.209,58.7149 c 15.0329,0.4068 31.7349,6.0684 44.7129,16.4062 14.8307,11.8134 24.7952,29.738 27.2539,46.1114 3.1253,16.26 -0.313,36.4755 -10.373,52.5488 -10.0587,16.0733 -26.7373,28.0028 -42.7266,32.2988 -15.8027,4.948 -36.2774,3.8198 -53.3867,-4.3535 -17.1094,-8.1747 -30.8517,-23.3955 -36.9317,-38.7969 -6.704,-15.1386 -7.9027,-35.6111 -1.7187,-53.5351 6.1853,-17.9254 19.7538,-33.3039 34.3672,-41.0879 l 25.4297,76.9453 c 1.3013,4.1227 4.5612,7.9029 8.4492,9.7949 3.836,1.9947 8.8137,2.3599 12.9004,0.9492 4.1226,-1.3013 7.9009,-4.5625 9.7929,-8.4492 1.9947,-3.836 2.3613,-8.8137 0.9493,-12.9004 l -25.045,-75.7812 c 2.0637,-0.158 4.1786,-0.2085 6.3262,-0.1504 z m -327.7012,0.059 c 7.4129,-0.058 14.6827,0.9469 21.3047,2.9336 l -26.8047,55.7304 c -4.02,7.7894 -3.4006,18.7661 1.4727,26.0528 4.4547,7.5493 14.0791,12.8677 22.8418,12.6211 H 1423 c -3.9533,13.2493 -12.6107,26.5083 -24.3027,36.0429 -11.6934,9.5374 -26.422,15.3512 -40.1953,16.5606 -13.748,1.48 -29.3214,-1.3748 -42.6387,-8.4668 -13.3174,-7.0934 -24.3783,-18.4229 -30.8223,-30.6563 -6.6827,-12.1053 -10.0794,-27.5717 -8.6914,-42.5957 1.3867,-15.024 7.5577,-29.6052 16.3457,-40.2812 8.5747,-10.8454 21.5234,-19.9608 35.9141,-24.4942 7.196,-2.2666 14.7512,-3.3889 22.164,-3.4472 z m 50.8789,19.4297 c 12.4987,11.124 21.3641,27.5527 23.8028,44.1074 h -45.0196 z"
           transform="matrix(0.75,0,0,0.75,2104.7122,1951.5891)" />
      </g>
    </g>
    <use
       x="0"
       y="0"
       xlink:href="#g4907"
       id="use4913"
       width="100%"
       height="100%"
       transform="matrix(0.35277777,0,0,0.35277777,-992.67061,-1555.755)" />
  </g>
</svg>
