<?xml version="1.0" encoding="UTF-8" standalone="no"?>
<!-- Created with Inkscape (http://www.inkscape.org/) -->

<svg
   width="119.6077mm"
   height="130.08981mm"
   viewBox="0 0 119.6077 130.08981"
   version="1.1"
   id="svg7987"
   inkscape:version="1.1.1 (c3084ef, 2021-09-22)"
   sodipodi:docname="iot_washing_machine.svg"
   xmlns:inkscape="http://www.inkscape.org/namespaces/inkscape"
   xmlns:sodipodi="http://sodipodi.sourceforge.net/DTD/sodipodi-0.dtd"
   xmlns:xlink="http://www.w3.org/1999/xlink"
   xmlns="http://www.w3.org/2000/svg"
   xmlns:svg="http://www.w3.org/2000/svg">
  <sodipodi:namedview
     id="namedview7989"
     pagecolor="#ffffff"
     bordercolor="#666666"
     borderopacity="1.0"
     inkscape:pageshadow="2"
     inkscape:pageopacity="0.0"
     inkscape:pagecheckerboard="0"
     inkscape:document-units="mm"
     showgrid="false"
     fit-margin-top="0"
     fit-margin-left="0"
     fit-margin-right="0"
     fit-margin-bottom="0"
     inkscape:zoom="0.64052329"
     inkscape:cx="28.882634"
     inkscape:cy="335.66305"
     inkscape:window-width="1440"
     inkscape:window-height="874"
     inkscape:window-x="577"
     inkscape:window-y="1466"
     inkscape:window-maximized="0"
     inkscape:current-layer="layer1" />
  <defs
     id="defs7984" />
  <g
     inkscape:label="Layer 1"
     inkscape:groupmode="layer"
     id="layer1"
     transform="translate(-97.577234,-10.960707)">
    <g
       id="g4894"
       clip-path="none"
       transform="matrix(0.35277777,0,0,0.35277777,-768.20235,-1577.1639)">
      <g
         inkscape:label="Clip"
         id="g4892">
        <path
           id="path862"
           style="fill:#000000;fill-opacity:1"
           d="m 207.89062,3632.6914 v 257.25 c -0.16666,6.2933 2.68902,13.8648 7.90235,19.0781 5.21333,5.2134 12.78284,8.0684 19.07617,7.9004 h 307.36133 c 6.29333,0.168 13.86479,-2.687 19.07812,-7.9004 5.21334,-5.2133 8.06901,-12.7848 7.90235,-19.0781 v -257.25 z m 181.01954,55.4727 c 19.78933,-0.5267 43.59752,8.4549 59.99218,24.8496 16.39467,16.3946 25.37495,40.2009 24.84961,59.9902 0.52534,19.7907 -8.45494,43.5995 -24.84961,59.9941 -16.39466,16.3934 -40.20285,25.373 -59.99218,24.8477 -19.79067,0.5253 -43.5969,-8.4543 -59.99024,-24.8477 -16.39466,-16.3946 -25.37627,-40.2034 -24.84961,-59.9941 -0.52666,-19.7893 8.45495,-43.5956 24.84961,-59.9902 16.39334,-16.3947 40.19957,-25.3763 59.99024,-24.8496 z"
           transform="matrix(0.75,0,0,0.75,2298.6407,1932.834)" />
        <path
           d="m 2681.891,4529.867 c 9.953,0.162 20.708,2.166 31.046,6.482 10.337,4.316 20.257,10.943 28.364,19.325 8.107,8.382 14.4,18.517 18.369,28.993 3.969,10.476 5.613,21.291 5.444,31.244 -0.139,3.273 1.284,7.234 3.953,9.989 2.669,2.755 6.584,4.303 9.859,4.267 3.272,0.139 7.234,-1.284 9.989,-3.953 2.755,-2.669 4.303,-6.584 4.267,-9.859 0.864,-29.149 -11.699,-60.489 -32.458,-80.971 -20.185,-21.047 -51.344,-34.053 -80.503,-33.602 -6.636,0.322 -13.141,8.243 -12.167,14.815 -0.189,6.642 7.209,13.736 13.837,13.27 z"
           stroke="#c80000"
           stroke-width="0.24"
           fill="none"
           id="path864"
           style="fill:#000000;fill-opacity:1" />
        <path
           d="m 2681.883,4555.137 c -3.288,-0.169 -7.283,1.226 -10.076,3.884 -2.793,2.657 -4.385,6.578 -4.379,9.87 -0.169,3.288 1.225,7.283 3.883,10.076 2.658,2.794 6.579,4.385 9.871,4.38 8.229,0.084 16.938,4.076 22.373,10.255 5.614,6.018 8.728,15.078 8.001,23.275 -0.33,3.276 0.867,7.334 3.385,10.255 2.517,2.92 6.356,4.701 9.644,4.857 3.276,0.33 7.334,-0.867 10.254,-3.385 2.921,-2.518 4.702,-6.355 4.858,-9.644 1.385,-15.603 -4.543,-32.848 -15.228,-44.302 -10.345,-11.762 -26.922,-19.361 -42.586,-19.521 z"
           stroke="#c80000"
           stroke-width="0.24"
           fill="none"
           id="path866"
           style="fill:#000000;fill-opacity:1" />
        <path
           id="path898"
           style="fill:#000000;fill-opacity:1"
           d="m 418.20508,3494.6777 c -0.31334,0 -0.62617,0 -0.9375,0.018 H 234.36914 c -6.29333,-0.1667 -13.86346,2.691 -19.07812,7.9043 -5.21334,5.2133 -8.0684,12.7842 -7.9004,19.0762 v 81.9824 h 275.29297 l -40.70898,-92.8184 c -3.50429,-9.0028 -14.05591,-16.1075 -23.76953,-16.1621 z m -151.2832,25.8418 c 0.41245,0 0.82202,0 1.2246,0.024 6.45067,-0.024 14.13814,3.0777 19.35547,8.539 5.21867,5.4614 7.96773,13.28 7.65039,19.7227 0.024,6.4493 -3.07773,14.1387 -8.53906,19.3574 -5.46133,5.2187 -13.27999,7.9658 -19.72266,7.6484 -6.44933,0.024 -14.13875,-3.0771 -19.35742,-8.5371 -5.21866,-5.4613 -7.9671,-13.2832 -7.64843,-19.7246 -0.0253,-6.4506 3.07577,-14.1368 8.53711,-19.3554 5.12,-4.8938 12.31322,-7.6143 18.5,-7.6739 z m 86.88867,0.024 c 6.44933,-0.024 14.13875,3.0777 19.35742,8.539 5.21867,5.4614 7.96577,13.28 7.64844,19.7227 0.0253,6.4493 -3.07578,14.1387 -8.53711,19.3574 -5.46134,5.2187 -13.28328,7.9658 -19.72461,7.6484 -6.45067,0.024 -14.1368,-3.0771 -19.35547,-8.5371 -5.21867,-5.4613 -7.96773,-13.2832 -7.65039,-19.7246 -0.024,-6.4506 3.07773,-14.1368 8.53906,-19.3554 5.46133,-5.22 13.27999,-7.9678 19.72266,-7.6504 z"
           transform="matrix(0.75,0,0,0.75,2298.6407,1932.834)" />
        <path
           d="m 2548.138,4770.482 c 30.575,1.548 56.042,-25.039 84.027,-17.444 2.623,10.797 0.404,23.475 -5.729,32.74 -5.874,9.432 -16.479,16.723 -27.389,18.831 -10.847,2.409 -23.478,-0.058 -32.621,-6.373 -9.314,-6.058 -16.395,-16.805 -18.288,-27.754 z"
           stroke="#c80000"
           stroke-width="0.24"
           fill="none"
           id="path900"
           style="fill:#000000;fill-opacity:1" />
      </g>
    </g>
    <use
       x="0"
       y="0"
       xlink:href="#g4892"
       id="use4898"
       width="100%"
       height="100%"
       transform="matrix(0.35277777,0,0,0.35277777,-768.20235,-1577.1639)" />
  </g>
</svg>
