<?xml version="1.0" encoding="UTF-8" standalone="no"?>
<!-- Created with Inkscape (http://www.inkscape.org/) -->

<svg
   width="82.961884mm"
   height="125.86333mm"
   viewBox="0 0 82.961884 125.86333"
   version="1.1"
   id="svg7245"
   inkscape:version="1.1.1 (c3084ef, 2021-09-22)"
   sodipodi:docname="iot_lock.svg"
   xmlns:inkscape="http://www.inkscape.org/namespaces/inkscape"
   xmlns:sodipodi="http://sodipodi.sourceforge.net/DTD/sodipodi-0.dtd"
   xmlns:xlink="http://www.w3.org/1999/xlink"
   xmlns="http://www.w3.org/2000/svg"
   xmlns:svg="http://www.w3.org/2000/svg">
  <sodipodi:namedview
     id="namedview7247"
     pagecolor="#ffffff"
     bordercolor="#666666"
     borderopacity="1.0"
     inkscape:pageshadow="2"
     inkscape:pageopacity="0.0"
     inkscape:pagecheckerboard="0"
     inkscape:document-units="mm"
     showgrid="false"
     fit-margin-top="0"
     fit-margin-left="0"
     fit-margin-right="0"
     fit-margin-bottom="0"
     inkscape:zoom="0.64052329"
     inkscape:cx="-50.739763"
     inkscape:cy="413.72422"
     inkscape:window-width="1440"
     inkscape:window-height="874"
     inkscape:window-x="577"
     inkscape:window-y="1466"
     inkscape:window-maximized="0"
     inkscape:current-layer="layer1" />
  <defs
     id="defs7242" />
  <g
     inkscape:label="Layer 1"
     inkscape:groupmode="layer"
     id="layer1"
     transform="translate(-118.37858,-39.097523)">
    <g
       id="g4086"
       clip-path="none"
       transform="matrix(0.35277777,0,0,0.35277777,-549.26355,-1334.7094)">
      <g
         inkscape:label="Clip"
         id="g4084">
        <path
           id="path854"
           style="fill:#000000;fill-opacity:1"
           d="m 2447.8613,2845.2129 -36.0332,35.0781 c 11.9494,14.532 18.9453,34.3208 18.7813,53.1328 v 42.6465 h -169.1055 v -42.6465 c -0.1533,-18.5426 6.6214,-38.0214 18.2481,-52.4668 l -37.1993,-33.6113 c -17.684,22.3173 -27.9539,52.2005 -27.7246,80.6738 v 48.0547 c -6.2386,-0.04 -13.6501,2.8854 -18.7461,8.0801 -5.0973,5.1947 -7.8813,12.6599 -7.7226,18.8945 v 173.3047 c -0.1667,6.2933 2.689,13.8629 7.9023,19.0762 5.2134,5.2133 12.7848,8.071 19.0781,7.9043 h 259.5821 c 6.2933,0.1667 13.8648,-2.691 19.0781,-7.9043 5.2147,-5.2133 8.069,-12.7829 7.9023,-19.0762 v -173.3047 c 0.1307,-6.024 -2.3999,-13.108 -7.0839,-18.2226 -4.684,-5.1134 -11.5212,-8.2537 -17.5332,-8.6524 v -48.1543 c 0.2573,-29.3373 -10.7105,-60.2106 -29.4239,-82.8066 z M 2346.334,3035.748 c 11.0214,0.2229 22.9669,8.8532 26.1094,19.2832 4.5213,10.7054 0.023,26.2256 -9.5215,32.8536 -2.0094,1.3306 -2.7334,4.8479 -1.416,6.8652 l 20.6875,37.5625 c 0.916,1.5493 0.88,3.8335 -0.084,5.3535 -0.8707,1.576 -2.8563,2.7065 -4.6563,2.6465 l -59.3222,-0.1484 c -1.744,0.044 -3.6549,-1.0118 -4.5469,-2.5118 -0.972,-1.4466 -1.107,-3.6262 -0.3203,-5.1835 l 17.2929,-36.7364 c 1.188,-2.0973 0.2417,-5.5604 -1.8476,-6.7617 -9.9453,-6.0093 -15.4193,-21.2129 -11.586,-32.1836 2.6387,-11.316 15.4055,-21.2207 27.0215,-20.9687 0.7237,-0.062 1.4547,-0.085 2.1895,-0.07 z"
           transform="matrix(0.75,0,0,0.75,251.26455,1848.5282)" />
        <path
           d="m 1949.651,3947.699 c 6.968,-7.109 15.825,-13.532 26.071,-18.061 10.246,-4.528 21.882,-7.163 33.542,-7.275 11.66,-0.112 23.344,2.298 33.676,6.629 10.331,4.331 19.309,10.583 26.412,17.557 2.279,2.352 6.132,4.047 9.968,4.006 3.836,-0.04 7.653,-1.814 9.881,-4.214 2.353,-2.279 4.047,-6.133 4.007,-9.968 -0.04,-3.836 -1.814,-7.653 -4.215,-9.881 -20.551,-20.69 -51.934,-33.147 -81.08,-32.184 -29.161,0.157 -60.043,13.809 -79.785,35.272 -4.334,5.036 -3.065,15.207 2.374,19.024 4.688,4.708 14.926,4.224 19.149,-0.905 z"
           stroke="#c80000"
           stroke-width="0.24"
           fill="none"
           id="path858"
           style="fill:#000000;fill-opacity:1" />
        <path
           d="m 1967.978,3965.098 c -2.385,2.269 -4.123,6.127 -4.118,9.982 0.01,3.856 1.755,7.709 4.147,9.971 2.268,2.386 6.127,4.124 9.982,4.118 3.856,0 7.709,-1.754 9.971,-4.146 5.725,-5.912 14.615,-9.482 22.839,-9.172 8.229,0.069 16.945,4.046 22.391,10.216 2.149,2.494 5.918,4.419 9.769,4.602 3.851,0.184 7.786,-1.375 10.162,-3.653 2.494,-2.149 4.419,-5.918 4.602,-9.769 0.184,-3.851 -1.374,-7.786 -3.653,-10.162 -10.366,-11.743 -26.956,-19.313 -42.62,-19.445 -15.653,-0.59 -32.575,6.205 -43.472,17.458 z"
           stroke="#c80000"
           stroke-width="0.24"
           fill="none"
           id="path860"
           style="fill:#000000;fill-opacity:1" />
      </g>
    </g>
    <use
       x="0"
       y="0"
       xlink:href="#g4084"
       id="use4090"
       width="100%"
       height="100%"
       transform="matrix(0.35277777,0,0,0.35277777,-549.26355,-1334.7094)" />
  </g>
</svg>
