<?xml version="1.0" encoding="UTF-8" standalone="no"?>
<!-- Created with Inkscape (http://www.inkscape.org/) -->

<svg
   width="107.06379mm"
   height="128.41473mm"
   viewBox="0 0 107.06379 128.41473"
   version="1.1"
   id="svg6952"
   inkscape:version="1.1.1 (c3084ef, 2021-09-22)"
   sodipodi:docname="iot_basket.svg"
   xmlns:inkscape="http://www.inkscape.org/namespaces/inkscape"
   xmlns:sodipodi="http://sodipodi.sourceforge.net/DTD/sodipodi-0.dtd"
   xmlns:xlink="http://www.w3.org/1999/xlink"
   xmlns="http://www.w3.org/2000/svg"
   xmlns:svg="http://www.w3.org/2000/svg">
  <sodipodi:namedview
     id="namedview6954"
     pagecolor="#ffffff"
     bordercolor="#666666"
     borderopacity="1.0"
     inkscape:pageshadow="2"
     inkscape:pageopacity="0.0"
     inkscape:pagecheckerboard="0"
     inkscape:document-units="mm"
     showgrid="false"
     fit-margin-top="0"
     fit-margin-left="0"
     fit-margin-right="0"
     fit-margin-bottom="0"
     inkscape:zoom="0.64052329"
     inkscape:cx="97.576468"
     inkscape:cy="432.45891"
     inkscape:window-width="1440"
     inkscape:window-height="874"
     inkscape:window-x="577"
     inkscape:window-y="1466"
     inkscape:window-maximized="0"
     inkscape:current-layer="layer1" />
  <defs
     id="defs6949" />
  <g
     inkscape:label="Layer 1"
     inkscape:groupmode="layer"
     id="layer1"
     transform="translate(-79.477844,-34.104141)">
    <g
       id="g4061"
       clip-path="none"
       transform="matrix(0.35277777,0,0,0.35277777,-143.58902,-1121.1735)">
      <g
         inkscape:label="Clip"
         id="g4059">
        <path
           d="m 741.0032,3346.479 c -2.3416,2.314 -4.005,6.205 -3.9253,10.06 0.0797,3.855 1.9025,7.674 4.3378,9.889 2.3142,2.342 6.2051,4.005 10.0599,3.926 3.8549,-0.08 7.6737,-1.903 9.8891,-4.338 5.61,-6.021 14.43,-9.762 22.6581,-9.61 8.2291,-0.089 17.0202,3.719 22.584,9.783 2.1967,2.452 6.0014,4.304 9.8555,4.413 3.8542,0.109 7.7577,-1.524 10.0897,-3.848 2.4522,-2.197 4.3042,-6.002 4.4134,-9.856 0.1092,-3.854 -1.5244,-7.757 -3.8482,-10.089 -10.5902,-11.542 -27.3231,-18.79 -42.9864,-18.621 -15.6615,-0.289 -32.4495,6.831 -43.1276,18.291 z"
           stroke="#c80000"
           stroke-width="0.24"
           fill="none"
           id="path916"
           style="fill:#000000;fill-opacity:1" />
        <path
           d="m 722.3447,3329.437 c 6.8296,-7.242 15.5607,-13.835 25.7178,-18.56 10.157,-4.725 21.7401,-7.583 33.3958,-7.919 11.6558,-0.337 23.3844,1.848 33.7972,5.979 10.4127,4.131 19.5097,10.209 26.7457,17.045 2.3232,2.308 6.2088,3.928 10.0429,3.814 3.834,-0.114 7.6165,-1.962 9.7984,-4.404 2.3086,-2.324 3.9283,-6.209 3.8142,-10.043 -0.114,-3.834 -1.9617,-7.617 -4.4042,-9.799 -20.9462,-20.289 -52.5627,-32.14 -81.6848,-30.616 -29.153,0.718 -59.7658,14.962 -79.0913,36.801 -4.2363,5.119 -2.7718,15.263 2.7394,18.975 4.7779,4.617 15.005,3.936 19.1289,-1.273 z"
           stroke="#c80000"
           stroke-width="0.24"
           fill="none"
           id="path918"
           style="fill:#000000;fill-opacity:1" />
        <path
           id="path924"
           style="fill:#000000;fill-opacity:1"
           d="m 1173.7383,2839.6895 -44.6699,121.0976 h -33.2364 c -6.638,-0.6733 -14.1631,6.851 -13.4902,13.4883 v 54.4355 c -0.6729,6.6374 6.8522,14.1617 13.4902,13.4883 h 14.3145 l 28.1836,159.6172 c 0.608,5.9213 7.3483,11.5752 13.2851,11.1445 h 261.4278 c 5.9366,0.4307 12.6771,-5.2232 13.2851,-11.1445 l 28.1836,-159.6172 h 18.9063 c 6.638,0.6734 14.1631,-6.8509 13.4902,-13.4883 v -54.4355 c 0.6729,-6.6373 -6.8522,-14.1616 -13.4902,-13.4883 h -37.8282 l -44.6699,-121.0976 -28.0566,25.9335 34.6367,95.1641 h -230.3418 l 34.6367,-95.1641 z m 29.0586,215.8066 c 5.3329,-0.071 11.0215,2.2841 14.7422,6.1055 3.8213,3.72 6.1768,9.4088 6.1054,14.7422 v 73.5058 c 0.1294,4.8627 -2.0769,10.7148 -6.1054,14.7442 -4.0287,4.0279 -9.8793,6.2348 -14.7422,6.1054 -4.863,0.1294 -10.7137,-2.0775 -14.7422,-6.1054 -4.0285,-4.0294 -6.2348,-9.8815 -6.1055,-14.7442 v -73.5058 c -0.071,-5.3334 2.2842,-11.0222 6.1055,-14.7422 3.7205,-3.8214 9.4092,-6.1762 14.7422,-6.1055 z m 79.0781,0 c 5.3329,-0.071 11.0215,2.2841 14.7422,6.1055 3.8213,3.72 6.1768,9.4088 6.1055,14.7422 v 73.5058 c 0.1293,4.8627 -2.077,10.7148 -6.1055,14.7442 -4.0287,4.0279 -9.8791,6.2348 -14.7422,6.1054 -4.8628,0.1294 -10.7117,-2.0775 -14.7402,-6.1054 -4.0287,-4.0294 -6.2368,-9.8815 -6.1075,-14.7442 v -73.5058 c -0.071,-5.3334 2.286,-11.0222 6.1075,-14.7422 3.7205,-3.8214 9.4071,-6.1762 14.7402,-6.1055 z m 81.5957,0 c 5.3329,-0.071 11.0197,2.2841 14.7402,6.1055 3.8215,3.72 6.1788,9.4088 6.1075,14.7422 v 73.5058 c 0.1293,4.8627 -2.0788,10.7148 -6.1075,14.7442 -4.0285,4.0279 -9.8774,6.2348 -14.7402,6.1054 -4.8631,0.1294 -10.7137,-2.0774 -14.7422,-6.1054 -4.0285,-4.0294 -6.2348,-9.8815 -6.1055,-14.7442 v -73.5058 c -0.071,-5.3334 2.2842,-11.0222 6.1055,-14.7422 3.7205,-3.8214 9.4093,-6.1762 14.7422,-6.1055 z"
           transform="matrix(0.75,0,0,0.75,-179.40926,1229.0751)" />
      </g>
    </g>
    <use
       x="0"
       y="0"
       xlink:href="#g4059"
       id="use4065"
       width="100%"
       height="100%"
       transform="matrix(0.35277777,0,0,0.35277777,-143.58902,-1121.1735)" />
  </g>
</svg>
