<?xml version="1.0" encoding="UTF-8" standalone="no"?>
<!-- Created with Inkscape (http://www.inkscape.org/) -->

<svg
   width="108.68259mm"
   height="131.20607mm"
   viewBox="0 0 108.68259 131.20607"
   version="1.1"
   id="svg7535"
   sodipodi:docname="iot_door.svg"
   inkscape:version="1.1.1 (c3084ef, 2021-09-22)"
   xmlns:inkscape="http://www.inkscape.org/namespaces/inkscape"
   xmlns:sodipodi="http://sodipodi.sourceforge.net/DTD/sodipodi-0.dtd"
   xmlns:xlink="http://www.w3.org/1999/xlink"
   xmlns="http://www.w3.org/2000/svg"
   xmlns:svg="http://www.w3.org/2000/svg">
  <sodipodi:namedview
     id="namedview7537"
     pagecolor="#ffffff"
     bordercolor="#666666"
     borderopacity="1.0"
     inkscape:pageshadow="2"
     inkscape:pageopacity="0.0"
     inkscape:pagecheckerboard="0"
     inkscape:document-units="mm"
     showgrid="false"
     fit-margin-top="0"
     fit-margin-left="0"
     fit-margin-right="0"
     fit-margin-bottom="0"
     inkscape:zoom="0.64052329"
     inkscape:cx="355.17834"
     inkscape:cy="145.19378"
     inkscape:window-width="1440"
     inkscape:window-height="874"
     inkscape:window-x="577"
     inkscape:window-y="1466"
     inkscape:window-maximized="0"
     inkscape:current-layer="layer1" />
  <defs
     id="defs7532" />
  <g
     inkscape:label="Layer 1"
     inkscape:groupmode="layer"
     id="layer1"
     transform="translate(-11.3374,-110.36637)">
    <g
       id="g5897"
       clip-path="none"
       transform="matrix(0.35277777,0,0,0.35277777,-1077.0387,-611.32093)">
      <g
         inkscape:label="Clip"
         id="g5895">
        <path
           id="path842"
           style="fill:#000000;fill-opacity:1"
           d="m 1866.5488,3471.1582 c -4.72,-0.1253 -10.3959,2.0184 -14.3066,5.9277 -3.9107,3.9107 -6.0531,9.5886 -5.9277,14.3086 v 409.5098 c -0.1254,4.72 2.017,10.3993 5.9277,14.3086 3.9107,3.9107 9.5866,6.0531 14.3066,5.9277 h 157.461 c 4.72,0.1254 10.3992,-2.017 14.3086,-5.9277 3.9106,-3.9093 6.053,-9.5886 5.9277,-14.3086 v -170.4785 h -79.8945 c -15.028,0.4 -33.108,-6.4198 -45.5586,-18.8692 -12.4507,-12.4506 -19.2711,-30.5312 -18.8711,-45.5605 -0.4,-15.028 6.4204,-33.1079 18.8711,-45.5586 12.4506,-12.4507 30.5306,-19.2711 45.5586,-18.8711 h 79.8945 v -110.1719 c 0.1253,-4.72 -2.0171,-10.3979 -5.9277,-14.3086 -3.9094,-3.9093 -9.5886,-6.053 -14.3086,-5.9277 z m 78.7324,306.6895 c 6.3721,-0.1694 14.0365,2.7226 19.3165,8 5.2786,5.28 8.1712,12.9463 8.0019,19.3183 v 32.4727 c 0.1693,6.372 -2.7239,14.0377 -8.0039,19.3164 -5.2787,5.2786 -12.9424,8.1713 -19.3145,8.0019 -6.372,0.1694 -14.0396,-2.7233 -19.3183,-8.0019 -5.2787,-5.2787 -8.1713,-12.9444 -8.002,-19.3164 v -32.4727 c -0.1693,-6.372 2.7233,-14.0383 8.002,-19.3183 5.2787,-5.2774 12.9463,-8.1694 19.3183,-8 z"
           transform="matrix(0.75,0,0,0.75,1700.4287,-523.20881)" />
        <path
           d="m 3174.272,2205.026 c -5.365,-0.142 -11.82,2.293 -16.264,6.737 -4.445,4.445 -6.88,10.9 -6.737,16.265 -0.143,5.365 2.292,11.82 6.737,16.264 4.444,4.445 10.899,6.88 16.264,6.738 h 136.464 c 5.365,0.142 11.819,-2.293 16.264,-6.738 4.445,-4.444 6.88,-10.899 6.737,-16.264 0.143,-5.365 -2.292,-11.82 -6.737,-16.265 -4.445,-4.444 -10.899,-6.879 -16.264,-6.737 z"
           stroke="#c80000"
           stroke-width="0.24"
           fill="none"
           id="path844"
           style="fill:#000000;fill-opacity:1" />
        <path
           d="m 3275.664,2099.364 c -3.286,0.202 -7.098,2.038 -9.574,4.994 -2.476,2.956 -3.615,7.031 -3.238,10.301 0.202,3.287 2.038,7.099 4.994,9.575 2.956,2.475 7.031,3.615 10.302,3.238 8.186,-0.844 17.289,2.141 23.386,7.668 6.257,5.346 10.373,13.998 10.574,22.225 0.041,3.292 1.689,7.189 4.519,9.807 2.831,2.618 6.846,3.955 10.131,3.739 3.292,-0.041 7.19,-1.688 9.807,-4.519 2.618,-2.831 3.956,-6.846 3.74,-10.131 -0.384,-15.659 -8.218,-32.126 -20.126,-42.303 -11.606,-10.52 -28.933,-16.201 -44.515,-14.594 z"
           stroke="#c80000"
           stroke-width="0.24"
           fill="none"
           id="path846"
           style="fill:#000000;fill-opacity:1" />
        <path
           d="m 3272.823,2074.253 c 9.908,-0.961 20.82,-0.182 31.579,2.941 10.758,3.123 21.362,8.59 30.362,16.004 9,7.415 16.396,16.776 21.52,26.737 5.125,9.961 7.978,20.523 8.932,30.432 0.231,3.267 2.092,7.043 5.054,9.479 2.963,2.436 7.027,3.533 10.277,3.129 3.267,-0.231 7.043,-2.092 9.48,-5.055 2.436,-2.962 3.533,-7.027 3.128,-10.277 -2.428,-29.06 -18.444,-58.785 -41.38,-76.795 -22.429,-18.637 -54.856,-28.047 -83.777,-24.313 -6.558,1.069 -12.129,9.673 -10.42,16.093 0.562,6.621 8.712,12.836 15.245,11.625 z"
           stroke="#c80000"
           stroke-width="0.24"
           fill="none"
           id="path848"
           style="fill:#000000;fill-opacity:1" />
      </g>
    </g>
    <use
       x="0"
       y="0"
       xlink:href="#g5895"
       id="use5901"
       width="100%"
       height="100%"
       transform="matrix(0.35277777,0,0,0.35277777,-1077.0387,-611.32093)" />
  </g>
</svg>
