<svg xmlns="http://www.w3.org/2000/svg" version="1.1" xmlns:xlink="http://www.w3.org/1999/xlink" xmlns:svgjs="http://svgjs.dev/svgjs" width="100%" height="100%" viewBox="0 0 1000 600"><rect width="1000" height="600" x="0" y="0" fill="#ffffff"/><g><circle r="166.66666666666666" cx="272.07091776529944" cy="262.46714807933915" fill="#b4d7fe" transform="matrix(1.6988706064295842,0,0,1.698870606429584,37.7867063670337,-145.8977688017564)"/><path d="M61.24416273796585 337.46716142080084L51.33602651956893 187.46716542573222L108.94757353779737 187.46716542573222L112.9830065009193 289.7637506209693L152.418700986062 187.46716542573222L199.20347663981698 187.46716542573222L205.3386470796853 289.7637506209693L245.03680874942125 187.46716542573222L269.83995769348775 187.46716542573222L211.47381751955356 337.46716142080084L158.32421263941114 337.46716142080084L153.3701445302127 252.65745239909208L117.93707461011776 337.46716142080084L61.24416273796585 337.46716142080084ZM284.2428444480448 337.46716142080084L274.3018998315738 187.46716542573222L331.94625524787637 187.46716542573222L335.98168821099824 289.7637506209693L375.41738269614103 187.46716542573222L422.2021583498959 187.46716542573222L428.3373287897643 289.7637506209693L468.0026820614261 187.46716542573222L492.8058310054926 187.46716542573222L434.47249922963255 337.46716142080084L381.32289434949024 337.46716142080084L376.36882624029175 252.65745239909208L340.93575632019673 337.46716142080084L284.2428444480448 337.46716142080084Z " fill="#00000" transform="matrix(1.6988706064295842,0,0,1.698870606429584,37.7867063670337,-145.8977688017564)"/><path d="MNaN 262.4671652354981 " fill="#000000" transform="matrix(1.6988706064295842,0,0,1.698870606429584,37.7867063670337,-145.8977688017564)"/></g></svg>